<svg width="2006" height="197" viewBox="0 0 2006 197" fill="none" xmlns="http://www.w3.org/2000/svg"><path d="M1427.59 52.8467C1421.48 45.5883 1416.22 38.2145 1415.13 36.6804C1415.02 36.5649 1414.85 36.5649 1414.74 36.6804C1413.66 38.2145 1408.39 45.5883 1402.28 52.8467C1349.79 119.855 1410.55 165.087 1410.55 165.087L1411.06 165.434C1411.52 172.412 1412.64 182.458 1412.64 182.458H1417.17C1417.17 182.458 1418.31 172.478 1418.76 165.434L1419.27 165.038C1419.27 165.038 1480.08 119.871 1427.59 52.8632V52.8467ZM1414.92 164.065C1414.92 164.065 1412.2 161.739 1411.46 160.551V160.435L1414.74 87.4724C1414.74 87.2414 1415.08 87.2414 1415.08 87.4724L1418.36 160.435V160.551C1417.62 161.739 1414.9 164.065 1414.9 164.065H1414.92Z" fill="white"/><path d="M1528.61 148.739L1503.3 87.29L1503.25 87.125H1483.55V91.2491H1486.74C1487.71 91.2491 1488.61 91.645 1489.29 92.3213C1489.97 92.9977 1490.31 93.905 1490.31 94.8618L1489.75 156.706C1489.75 158.636 1488.17 160.22 1486.22 160.269L1482.99 160.319V164.394H1502.18V160.319L1500.18 160.269C1498.26 160.22 1496.66 158.636 1496.66 156.706V98.4249L1524.24 164.41C1524.64 165.367 1525.55 165.994 1526.57 165.994C1527.59 165.994 1528.5 165.367 1528.89 164.41L1555.85 99.8931L1556.25 156.706C1556.25 158.686 1554.67 160.269 1552.67 160.335H1550.63V164.41H1573.11V160.335H1570.04C1568.11 160.335 1566.52 158.702 1566.47 156.772L1566.3 94.9277C1566.3 92.9482 1567.88 91.3645 1569.83 91.2986L1573.12 91.2491V87.125H1553.94L1528.63 148.755H1528.61V148.739Z" fill="white"/><path d="M1705.15 159.725C1704.52 159.098 1704.17 158.241 1704.17 157.218V126.65C1704.17 120.827 1702.48 116.274 1699.05 113.024C1695.69 109.775 1691.02 108.125 1685.22 108.125C1677.08 108.125 1670.65 111.441 1666.15 117.94C1666.1 118.056 1665.92 118.105 1665.76 118.105C1665.59 118.105 1665.48 117.99 1665.48 117.825L1663.37 109.676H1659.84L1650.79 114.872V117.726H1653.13C1654.22 117.726 1655.13 118.006 1655.75 118.584C1656.38 119.161 1656.73 120.002 1656.73 121.207V157.201C1656.73 158.224 1656.38 159.082 1655.75 159.709C1655.13 160.336 1654.27 160.682 1653.25 160.682H1650.98V164.839H1671.81V160.682H1669.53C1668.51 160.682 1667.65 160.336 1667.03 159.709C1666.4 159.082 1666.05 158.224 1666.05 157.201V133.48C1666.05 130.461 1666.73 127.426 1667.98 124.473C1669.28 121.569 1671.23 119.112 1673.78 117.231C1676.34 115.35 1679.42 114.443 1682.95 114.443C1686.93 114.443 1689.95 115.697 1691.83 118.204C1693.71 120.712 1694.68 123.961 1694.68 127.838V157.267C1694.68 158.29 1694.33 159.148 1693.71 159.775C1693.08 160.402 1692.22 160.748 1691.2 160.748H1688.93V164.905H1709.76V160.748H1707.49C1706.63 160.748 1705.84 160.468 1705.15 159.775V159.725Z" fill="white"/><path d="M1895.46 91.7602C1889.7 88.6919 1883.26 87.0918 1876.32 87.0918H1849.23V91.2489H1851.88C1852.89 91.2489 1853.79 91.6448 1854.7 92.5521C1855.56 93.4099 1856 94.3666 1856 95.3894V156.541C1856 157.564 1855.56 158.537 1854.7 159.378C1853.86 160.236 1852.89 160.682 1851.88 160.682H1849.23V164.839H1876.32C1883.26 164.839 1889.7 163.255 1895.46 160.17C1901.22 157.102 1905.9 152.549 1909.28 146.759C1912.66 140.969 1914.42 133.974 1914.42 126.006C1914.42 118.039 1912.68 111.11 1909.28 105.254C1905.84 99.3485 1901.21 94.7956 1895.46 91.7272V91.7602ZM1903.53 125.924C1903.53 133.199 1902.23 139.335 1899.69 144.284C1897.15 149.233 1893.76 152.928 1889.59 155.304C1885.4 157.696 1880.77 158.884 1875.81 158.884H1870.34C1869.32 158.884 1868.43 158.488 1867.52 157.58C1866.68 156.723 1866.22 155.766 1866.22 154.743V97.105C1866.22 96.0823 1866.62 95.175 1867.52 94.2677C1868.38 93.4099 1869.34 92.9645 1870.34 92.9645H1875.81C1880.77 92.9645 1885.4 94.1522 1889.59 96.5442C1893.76 98.9361 1897.15 102.631 1899.69 107.564C1902.23 112.513 1903.53 118.649 1903.53 125.924Z" fill="white"/><path d="M1978.48 130.081C1975.98 127.178 1971.13 124.736 1965.45 123.433C1973.29 119.507 1977.35 113.997 1977.35 106.887C1977.35 103.027 1976.32 99.563 1974.26 96.5936C1972.22 93.6408 1969.32 91.2489 1965.61 89.5992C1961.92 87.9496 1957.59 87.0918 1952.69 87.0918H1922.02V91.2489H1924.46C1925.48 91.2489 1926.39 91.6448 1927.31 92.5521C1928.17 93.4099 1928.63 94.3666 1928.63 95.3894V156.541C1928.63 157.564 1928.17 158.537 1927.31 159.378C1926.46 160.236 1925.5 160.682 1924.46 160.682H1921.79V164.839H1955.08C1960.14 164.839 1964.87 163.981 1969.14 162.282C1973.41 160.583 1976.82 158.075 1979.27 154.776C1981.78 151.477 1983.03 147.452 1983.03 142.783C1982.98 137.785 1981.5 133.578 1978.48 130.048V130.081ZM1940.3 157.646C1939.44 156.789 1938.98 155.832 1938.98 154.809V127.359H1954.8C1960.39 127.359 1964.64 128.778 1967.61 131.615C1970.57 134.453 1972.04 138.148 1972.04 142.701C1972.04 145.423 1971.36 148.095 1970.11 150.536C1968.79 153.044 1966.86 155.023 1964.24 156.558C1961.67 158.092 1958.49 158.884 1954.8 158.884H1943.13C1942.11 158.933 1941.21 158.537 1940.28 157.63H1940.3V157.646ZM1939.05 121.487V97.105C1939.05 96.0823 1939.44 95.175 1940.35 94.2677C1941.21 93.4099 1942.16 92.9645 1943.2 92.9645H1950.71C1956.12 92.9645 1960.11 94.3337 1962.6 96.9401C1965.1 99.6125 1966.35 103.027 1966.35 107.234C1966.35 111.44 1965.15 115.02 1962.83 117.626C1960.49 120.183 1956.96 121.487 1952.3 121.487H1939.05Z" fill="white"/><path d="M1625.84 111.741C1621.49 109.365 1616.63 108.111 1611.39 108.111C1606.15 108.111 1601.22 109.299 1596.94 111.741C1592.59 114.116 1589.14 117.58 1586.6 121.935C1584.07 126.29 1582.76 131.388 1582.76 137.062C1582.76 142.737 1584.07 147.818 1586.6 152.189C1589.14 156.544 1592.59 160.009 1596.94 162.384C1601.29 164.76 1606.15 166.013 1611.39 166.013C1616.63 166.013 1621.56 164.826 1625.84 162.384C1630.19 160.009 1633.64 156.544 1636.18 152.189C1638.71 147.834 1640.02 142.737 1640.02 137.062C1640.02 131.388 1638.71 126.307 1636.18 121.935C1633.64 117.514 1630.19 114.116 1625.84 111.741ZM1630.03 137.046C1630.03 144.007 1628.33 149.682 1624.95 153.757C1621.62 157.831 1617.04 159.926 1611.41 159.926C1605.77 159.926 1601.19 157.831 1597.86 153.757C1594.47 149.682 1592.78 144.007 1592.78 137.046C1592.78 130.084 1594.48 124.41 1597.86 120.335C1601.19 116.26 1605.77 114.165 1611.41 114.165C1617.04 114.165 1621.62 116.26 1624.95 120.335C1628.35 124.41 1630.03 130.018 1630.03 137.046Z" fill="white"/><path d="M1825.98 111.741C1821.63 109.365 1816.76 108.111 1811.52 108.111C1806.28 108.111 1801.36 109.299 1797.07 111.741C1792.72 114.116 1789.28 117.58 1786.74 121.935C1784.2 126.29 1782.9 131.388 1782.9 137.062C1782.9 142.737 1784.2 147.818 1786.74 152.189C1789.28 156.544 1792.72 160.009 1797.07 162.384C1801.42 164.76 1806.28 166.013 1811.52 166.013C1816.76 166.013 1821.69 164.826 1825.98 162.384C1830.33 160.009 1833.77 156.544 1836.31 152.189C1838.85 147.834 1840.15 142.737 1840.15 137.062C1840.15 131.388 1838.85 126.307 1836.31 121.935C1833.77 117.514 1830.26 114.116 1825.98 111.741ZM1830.16 137.046C1830.16 144.007 1828.46 149.682 1825.09 153.757C1821.76 157.831 1817.18 159.926 1811.54 159.926C1805.9 159.926 1801.32 157.831 1797.98 153.757C1794.58 149.682 1792.9 144.007 1792.9 137.046C1792.9 130.084 1794.6 124.41 1797.98 120.335C1801.31 116.26 1805.89 114.165 1811.54 114.165C1817.19 114.165 1821.76 116.26 1825.09 120.335C1828.42 124.41 1830.16 130.018 1830.16 137.046Z" fill="white"/><path d="M1745.27 108.111C1740.73 108.111 1736.57 109.085 1732.82 111.015C1729.06 112.945 1726.11 115.568 1724 118.916C1721.91 122.216 1720.82 125.911 1720.82 129.837C1720.82 133.367 1721.61 136.6 1723.26 139.504C1724.86 142.292 1727.01 144.618 1729.73 146.564L1721.61 157.6C1720.59 158.969 1720.47 160.784 1721.21 162.269C1722 163.803 1723.49 164.71 1725.2 164.71H1727.54C1725.27 166.244 1723.45 168.075 1722.2 170.236C1720.72 172.678 1719.98 175.251 1719.98 177.858C1719.98 182.757 1722.14 186.799 1726.4 189.801C1730.62 192.82 1736.52 194.354 1743.97 194.354C1749.15 194.354 1754.09 193.496 1758.59 191.846C1763.14 190.197 1766.83 187.755 1769.57 184.555C1772.35 181.371 1773.78 177.495 1773.78 173.057C1773.78 168.389 1772.07 165.089 1768.1 161.906C1764.69 159.233 1759.35 157.815 1752.69 157.815H1729.93L1729.82 157.765C1729.82 157.765 1729.77 157.65 1729.82 157.6L1735.73 149.632C1737.33 150.375 1738.8 150.82 1740.12 151.117C1741.48 151.398 1743.02 151.513 1744.73 151.513C1749.51 151.513 1753.83 150.54 1757.58 148.61C1761.34 146.68 1764.34 144.057 1766.52 140.708C1768.68 137.409 1769.76 133.714 1769.76 129.787C1769.76 125.581 1767.72 117.894 1762.13 113.968C1762.13 113.918 1762.18 113.918 1762.18 113.918L1774.41 115.287V109.645H1754.85C1751.78 108.623 1748.59 108.111 1745.29 108.111H1745.27ZM1752.1 143.727C1749.94 144.865 1747.6 145.492 1745.27 145.492C1741.47 145.492 1738.11 144.123 1735.27 141.45C1732.44 138.778 1731 134.852 1731 129.837C1731 124.822 1732.42 120.896 1735.27 118.224C1738.12 115.551 1741.47 114.182 1745.27 114.182C1747.66 114.182 1749.94 114.759 1752.1 115.947C1754.26 117.085 1756.02 118.85 1757.44 121.176C1758.8 123.502 1759.55 126.406 1759.55 129.82C1759.55 133.235 1758.87 136.188 1757.44 138.464C1756.07 140.79 1754.26 142.506 1752.1 143.694V143.727ZM1736.69 164.661H1752.1C1756.37 164.661 1759.08 165.518 1760.91 167.333C1762.73 169.148 1763.65 171.605 1763.65 174.443C1763.65 178.6 1762 182.015 1758.71 184.572C1755.41 187.128 1750.98 188.448 1745.5 188.448C1740.73 188.448 1736.74 187.359 1733.84 185.314C1730.94 183.268 1729.45 180.134 1729.45 176.158C1729.45 173.651 1730.13 171.325 1731.5 169.28C1732.86 167.234 1734.51 165.749 1736.67 164.677L1736.69 164.661Z" fill="white"/><path d="M1994.57 163.915C1993.45 163.305 1992.61 162.414 1991.93 161.342C1991.3 160.22 1990.97 159.049 1990.97 157.762C1990.97 156.476 1991.3 155.255 1991.93 154.183C1992.56 153.061 1993.45 152.236 1994.57 151.609C1995.7 150.999 1996.94 150.652 1998.34 150.652C1999.74 150.652 2000.98 150.982 2002.11 151.609C2003.25 152.219 2004.09 153.11 2004.77 154.183C2005.39 155.304 2005.72 156.476 2005.72 157.762C2005.72 159.049 2005.39 160.27 2004.77 161.342C2004.14 162.464 2003.25 163.305 2002.11 163.915C2000.99 164.526 1999.76 164.872 1998.34 164.872C1996.92 164.872 1995.7 164.542 1994.57 163.915ZM2001.49 163.074C2002.44 162.579 2003.12 161.787 2003.68 160.897C2004.19 159.94 2004.47 158.884 2004.47 157.713C2004.47 156.542 2004.19 155.486 2003.68 154.529C2003.17 153.572 2002.44 152.846 2001.49 152.351C2000.53 151.857 1999.51 151.576 1998.34 151.576C1997.17 151.576 1996.15 151.857 1995.19 152.351C1994.24 152.846 1993.56 153.638 1993 154.529C1992.49 155.486 1992.21 156.542 1992.21 157.713C1992.21 158.884 1992.49 159.94 1993 160.897C1993.51 161.853 1994.24 162.579 1995.19 163.074C1996.15 163.569 1997.17 163.849 1998.34 163.849C1999.51 163.849 2000.6 163.618 2001.49 163.074ZM1995.31 161.111V160.616L1995.42 160.567H1995.77C1995.89 160.567 1996 160.517 1996.05 160.451C1996.17 160.336 1996.17 160.286 1996.17 160.171V154.974C1996.17 154.859 1996.12 154.743 1996.05 154.694C1995.93 154.578 1995.89 154.578 1995.77 154.578H1995.42L1995.31 154.529V154.034L1995.42 153.985H1998.36C1999.2 153.985 1999.82 154.15 2000.33 154.545C2000.85 154.941 2001.06 155.436 2001.06 156.113C2001.06 156.607 2000.9 157.119 2000.5 157.449C2000.1 157.845 1999.66 158.059 1999.1 158.125L1999.77 158.356L2001.08 160.418C2001.19 160.583 2001.31 160.649 2001.47 160.649H2001.8L2001.85 160.699V161.193L2001.8 161.243H2000.05L1999.94 161.193L1998.14 158.175H1997.7V160.187C1997.7 160.303 1997.75 160.418 1997.81 160.468C1997.93 160.583 1997.98 160.583 1998.09 160.583H1998.42L1998.54 160.633V161.127L1998.42 161.177H1995.44L1995.32 161.127H1995.31V161.111ZM1998.18 157.482C1998.62 157.482 1999.02 157.366 1999.25 157.086C1999.48 156.855 1999.64 156.476 1999.64 156.03C1999.64 155.585 1999.53 155.255 1999.31 154.974C1999.08 154.694 1998.75 154.578 1998.36 154.578H1998.13C1998.01 154.578 1997.9 154.628 1997.85 154.694C1997.73 154.809 1997.73 154.859 1997.73 154.974V157.482H1998.18Z" fill="white"/><path d="M1185.18 166.703V87.9118H1211.04C1225.68 87.9118 1234.56 97.6775 1234.56 108.775C1234.56 116.543 1231.12 121.759 1226.13 124.866C1233.79 127.64 1239.78 133.189 1239.78 143.732C1239.78 156.826 1229.35 166.703 1213.37 166.703H1185.18ZM1195.5 121.759H1211.04C1219.47 121.759 1224.46 116.543 1224.46 109.552C1224.46 102.893 1219.47 97.2336 1211.04 97.2336H1195.5V121.759ZM1195.5 157.381H1213.81C1224.35 157.381 1229.68 151.833 1229.68 144.064C1229.68 136.407 1224.35 130.637 1213.92 130.637H1195.5V157.381ZM1268.07 189.897H1257.42L1269.51 163.818L1245.21 111.216H1255.75L1274.84 153.275L1293.82 111.216H1304.47L1268.07 189.897Z" fill="white"/><path d="M32.6007 4.55934V5.01725C32.46 5.40472 32.3544 5.9683 32.2488 6.70801C32.1432 7.44772 32.1433 8.11698 32.1433 8.7158C32.1433 11.0406 32.46 13.612 33.0582 16.4651C33.7268 19.2479 34.9584 22.7351 36.7531 26.9268L86.5112 139.222L134.58 27.8426C135.706 25.0599 136.903 22.0306 138.169 18.7547C139.436 15.4436 140.07 12.1326 140.07 8.75103C140.07 7.8352 139.999 7.09548 139.859 6.49667C139.718 5.82741 139.542 5.33427 139.401 5.05248V4.59456H162.415V5.05248C161.007 6.46145 159.283 9.03282 157.242 12.6961C155.236 16.3595 153.019 20.9034 150.627 26.2927L86.3 169.268H77.3266L16.3432 31.7877C14.9356 28.5823 13.4224 25.4473 11.8389 22.4533C10.3258 19.4592 8.91821 16.7469 7.58101 14.3517C6.2438 11.886 5.04729 9.80776 3.9916 8.15222C2.93592 6.49667 2.23218 5.43994 1.84509 5.01725V4.55934H32.6007ZM162.767 104.949C162.767 96.1072 164.421 87.9 167.694 80.3268C171.072 72.7535 175.611 66.2018 181.382 60.6716C187.153 55.0357 193.945 50.6679 201.827 47.533C209.71 44.398 218.12 42.8129 227.093 42.8129C236.067 42.8129 244.231 44.3276 252.008 47.3216C259.855 50.2452 266.682 54.4369 272.453 59.8967C278.294 65.3564 282.904 72.0138 286.247 79.7984C289.625 87.583 291.314 96.3186 291.314 105.97C291.314 114.001 289.907 121.751 287.057 129.253C284.206 136.686 280.054 143.273 274.599 149.049C269.145 154.756 262.389 159.3 254.401 162.752C246.377 166.133 237.228 167.824 226.882 167.824C218.12 167.824 209.851 166.38 202.074 163.456C194.297 160.532 187.47 156.376 181.629 150.987C175.787 145.527 171.177 138.905 167.834 131.191C164.456 123.406 162.767 114.67 162.767 105.019V104.949ZM229.697 159.793C235.398 159.793 240.641 158.666 245.427 156.411C250.213 154.157 254.33 150.951 257.779 146.76C261.298 142.568 264.007 137.461 265.872 131.472C267.808 125.414 268.793 118.58 268.793 111.007C268.793 102.377 267.843 94.4165 265.978 87.0546C264.183 79.728 261.403 73.3876 257.673 68.0687C254.013 62.6794 249.404 58.4877 243.879 55.4937C238.354 52.4291 231.879 50.8793 224.454 50.8793C218.753 50.8793 213.51 51.9712 208.725 54.1551C203.939 56.339 199.786 59.474 196.267 63.5952C192.819 67.7165 190.144 72.7888 188.174 78.7769C186.203 84.765 185.253 91.5985 185.253 99.2422C185.253 107.802 186.203 115.762 188.068 123.195C190.004 130.521 192.819 136.932 196.478 142.427C200.209 147.816 204.854 152.079 210.414 155.249C215.938 158.313 222.378 159.863 229.733 159.863V159.793H229.697ZM365.987 119.426C365.987 126.154 366.057 132.036 366.198 137.073C366.339 142.11 366.55 146.443 366.761 150.106C367.077 153.699 367.394 156.728 367.781 159.194C368.239 161.66 368.731 163.703 369.259 165.253V165.71H343.219V165.253C343.747 163.667 344.204 161.66 344.556 159.194C345.014 156.728 345.33 153.699 345.577 150.106C345.893 146.443 346.105 142.075 346.245 137.073C346.386 132.036 346.457 126.154 346.457 119.426V111.676L306.024 58.2764C303.314 54.6835 300.745 51.7951 298.282 49.6112C295.819 47.3568 293.954 45.9479 292.652 45.3491V44.8911H324.533C324.533 46.2297 325.026 48.3431 325.976 51.1963C326.961 53.979 328.932 57.3958 331.923 61.4113L360.427 99.1718L389.634 59.8262C391.745 56.9731 393.294 54.1551 394.349 51.4076C395.476 48.6249 396.038 46.4762 396.038 44.8911H416.589V45.3491C414.724 46.6171 412.789 48.2374 410.748 50.1748C408.812 52.1121 406.525 54.8948 403.886 58.4877L365.916 109.95V119.39H365.987V119.426ZM494.921 127.739H466.277C462.441 127.739 458.817 127.774 455.368 127.844C451.919 127.844 448.788 127.88 445.937 127.95H439.322L435.169 136.721C433.375 140.314 431.826 143.449 430.559 146.161C429.293 148.768 428.237 151.092 427.428 153.135C426.618 155.143 426.02 156.904 425.633 158.419C425.246 159.828 425.07 161.202 425.07 162.47C425.07 163.28 425.105 163.914 425.176 164.372C425.246 164.759 425.351 165.041 425.527 165.288V165.746H405.751V165.288C406.279 164.759 407.088 163.632 408.214 161.906C409.34 160.11 410.607 157.926 412.05 155.39C413.563 152.854 415.111 149.965 416.765 146.725C418.489 143.519 420.179 140.173 421.833 136.721L467.649 42.0732H476.06L520.961 136.721C522.686 140.314 524.41 143.766 526.134 147.077C527.929 150.388 529.583 153.347 531.061 155.953C532.574 158.489 533.876 160.638 535.002 162.364C536.128 164.02 536.867 164.971 537.254 165.288V165.746H508.504C508.645 165.147 508.716 164.618 508.716 164.161V162.47C508.716 160.814 508.328 158.842 507.589 156.517C506.921 154.192 506.041 151.832 505.021 149.437C504.035 146.971 503.015 144.611 501.889 142.357C500.833 140.102 499.989 138.235 499.32 136.721L494.956 127.739H494.921ZM443.72 118.968H460.576C464.166 118.897 467.755 118.862 471.344 118.862H481.795C485.174 118.792 488.2 118.756 490.874 118.756L467.649 69.0902L443.72 119.003V118.968ZM661.333 152.149C661.333 153.135 661.227 153.946 660.981 154.615C660.84 155.284 660.418 155.848 659.749 156.306C654.435 160.039 648.207 163.033 641.099 165.288C634.061 167.472 625.791 168.564 616.29 168.564C605.592 168.564 595.81 167.014 586.977 163.949C578.215 160.885 570.684 156.623 564.421 151.128C558.122 145.597 553.23 138.94 549.711 131.226C546.263 123.512 544.538 114.952 544.538 105.583C544.538 97.5514 546.122 89.7669 549.254 82.1936C552.456 74.6204 557.066 67.9278 563.083 62.0806C569.066 56.2334 576.35 51.5485 584.866 48.0261C593.487 44.5037 603.164 42.7425 613.932 42.7425C619.563 42.7425 624.876 43.0947 629.873 43.764C634.905 44.3628 639.726 45.3491 644.371 46.6876L652.782 66.9063L651.656 67.6812C647.151 62.5033 641.732 58.4173 635.363 55.4232C628.993 52.3587 621.709 50.8088 613.475 50.8088C606.718 50.8088 600.525 51.9008 594.824 54.0847C589.229 56.2686 584.303 59.4388 580.115 63.6305C575.998 67.7517 572.796 72.8592 570.473 78.9178C568.151 84.9764 566.989 91.8803 566.989 99.5945C566.989 108.295 568.08 116.326 570.262 123.758C572.444 131.191 575.681 137.637 580.045 143.096C584.373 148.486 589.722 152.713 596.091 155.812C602.531 158.877 610.026 160.427 618.542 160.427C625.861 160.427 631.562 159.476 635.609 157.609C639.726 155.742 641.767 153.593 641.767 151.198V145.245C641.767 141.335 641.732 137.989 641.662 135.136C641.591 132.283 641.486 129.852 641.345 127.844C641.204 125.731 640.958 123.934 640.676 122.455C640.465 120.94 640.149 119.567 639.761 118.299V117.841H663.69V118.299C663.303 119.426 662.987 120.764 662.67 122.349C662.353 123.934 662.107 125.801 661.896 127.985C661.755 130.169 661.614 132.705 661.438 135.629C661.368 138.552 661.333 141.934 661.333 145.738V152.149ZM687.056 44.9264H709.613C717.319 44.8559 724.463 44.7855 731.043 44.715C737.624 44.5741 743.289 44.398 748.005 44.2571C752.79 44.1162 755.922 43.8696 757.435 43.5878L753.072 55.7402C751.066 55.2119 748.779 54.7187 746.21 54.296C743.958 53.9086 741.248 53.5915 738.011 53.2745C734.879 52.8871 731.184 52.7109 726.996 52.7109C725.518 52.7109 723.794 52.7814 721.824 52.9223C719.888 52.9927 717.988 53.0984 716.193 53.2745C714.082 53.4154 711.97 53.5915 709.789 53.7324V98.115C715.841 98.0446 721.331 97.9037 726.187 97.6571C731.043 97.4458 735.195 97.1287 738.644 96.7413C742.691 96.4243 746.245 96.0368 749.307 95.5084L746.597 108.894C742.48 108.365 738.327 107.907 734.14 107.555C730.551 107.168 726.574 106.886 722.246 106.639C717.917 106.322 713.765 106.181 709.789 106.181V157.221C716.756 157.221 723.161 156.975 729.002 156.446C734.844 155.848 739.946 155.214 744.274 154.544C749.377 153.734 753.952 152.783 758.104 151.726L755.535 166.45C754.409 166.38 752.579 166.274 750.046 166.098C747.582 166.027 744.943 165.957 742.198 165.887C739.489 165.887 736.955 165.851 734.562 165.781H687.056V165.323C687.584 163.738 688.042 161.73 688.393 159.264C688.851 156.799 689.168 153.769 689.414 150.177C689.731 146.513 689.942 142.145 690.082 137.144C690.223 132.106 690.294 126.224 690.294 119.496V91.1758C690.294 84.448 690.223 78.6008 690.082 73.6341C689.942 68.5971 689.695 64.2997 689.414 60.7068C689.203 57.0435 688.851 53.979 688.393 51.4781C688.006 49.0124 687.584 46.9694 687.056 45.4195V44.9616V44.9264ZM964.843 165.746V165.288C964.983 164.9 965.089 164.337 965.159 163.597C965.23 162.857 965.265 162.188 965.265 161.589C965.265 159.264 964.913 156.728 964.244 153.946C963.646 151.092 962.45 147.57 960.655 143.378L947.072 112.804C942.884 112.663 937.289 112.592 930.357 112.592H890.592C885.138 112.592 880.177 112.663 875.778 112.804L862.863 142.462C861.737 145.245 860.541 148.274 859.274 151.55C858.007 154.861 857.374 158.172 857.374 161.554C857.374 162.54 857.444 163.35 857.585 164.02C857.726 164.618 857.866 165.041 858.042 165.253V165.71H835.134V165.253C836.471 163.844 838.16 161.307 840.201 157.715C842.207 154.051 844.424 149.472 846.817 144.012L911.143 1.14258H920.117L981.1 138.482C982.508 141.687 983.986 144.858 985.464 147.922C987.047 150.916 988.49 153.628 989.827 156.024C991.164 158.419 992.361 160.462 993.416 162.082C994.472 163.738 995.176 164.795 995.563 165.217V165.675H964.807V165.746H964.843ZM892.071 102.906H905.443C910.017 102.835 914.451 102.8 918.815 102.8C923.213 102.729 927.471 102.694 931.518 102.694C935.565 102.624 939.224 102.553 942.532 102.483L910.967 31.1184L879.965 102.941H892.106H892.071V102.906ZM1010.55 165.288C1011.01 163.703 1011.4 161.765 1011.79 159.441C1012.17 157.116 1012.49 154.227 1012.81 150.775C1013.12 147.323 1013.33 143.237 1013.47 138.517C1013.62 133.727 1013.69 128.126 1013.69 121.786V48.6249C1013.69 42.2493 1013.62 36.7191 1013.47 31.999C1013.33 27.2085 1013.09 23.0873 1012.81 19.6353C1012.52 16.1129 1012.17 13.1893 1011.79 10.8645C1011.4 8.53968 1011.01 6.60234 1010.55 5.01725V4.55934H1037.4V5.01725C1036.95 6.60234 1036.49 8.53968 1036.07 10.8645C1035.68 13.1893 1035.36 16.1129 1035.05 19.6353C1034.83 23.0873 1034.59 27.2085 1034.38 31.999C1034.24 36.7191 1034.17 42.2493 1034.17 48.6249V121.786C1034.17 128.161 1034.24 133.727 1034.38 138.517C1034.59 143.237 1034.83 147.323 1035.05 150.775C1035.33 154.227 1035.68 157.116 1036.07 159.441C1036.52 161.765 1036.98 163.703 1037.4 165.288V165.746H1010.55V165.288Z" fill="white"/><path d="M32.6008 4.56138H33.6917V3.46943H32.6008V4.56138ZM32.6008 5.01929L33.5861 5.40676L33.6565 5.23064V5.01929H32.5657H32.6008ZM86.5112 139.224L85.5259 139.647L86.5112 141.901L87.4965 139.647L86.5112 139.224ZM139.401 5.01929H138.31V5.26586L138.416 5.47721L139.366 4.98406H139.401V5.01929ZM139.401 4.56138V3.46943H138.31V4.56138H139.401ZM162.415 4.56138H163.506V3.46943H162.415V4.56138ZM162.415 5.01929L163.189 5.79423L163.506 5.47721V5.01929H162.415ZM86.3001 169.235V170.327H87.0038L87.2854 169.693L86.3001 169.235ZM77.2916 169.235L76.3063 169.658L76.5877 170.292H77.2916V169.2V169.235ZM1.84514 5.01929H0.754272V5.40676L1.00063 5.72378L1.84514 5.01929ZM1.84514 4.56138V3.46943H0.754272V4.56138H1.84514ZM31.5451 4.56138V5.01929H33.6917V4.56138H31.5451ZM31.6155 4.5966C31.4043 5.12497 31.2988 5.79423 31.1932 6.56916L33.3397 6.7805C33.4101 6.07602 33.5157 5.6181 33.6213 5.37153L31.6155 4.56138V4.5966ZM31.1932 6.60439C31.1228 7.37932 31.0877 8.0838 31.0877 8.71784H33.2342C33.2342 8.15425 33.2342 7.52022 33.3397 6.81573L31.1932 6.60439ZM31.0877 8.71784C31.0877 11.1483 31.4044 13.7901 32.0026 16.6785L34.1139 16.2206C33.5157 13.4379 33.2342 10.937 33.2342 8.68262H31.0877V8.71784ZM32.0026 16.7138C32.7064 19.5669 33.9732 23.1246 35.7678 27.3515L37.7384 26.5061C35.9438 22.3496 34.7474 18.8977 34.0788 16.2206L31.9674 16.7138H32.0026ZM35.8031 27.3515L85.5611 139.647L87.5318 138.766L37.7737 26.4709L35.8031 27.3515ZM87.4965 139.647L135.565 28.2673L133.595 27.4219L85.5259 138.801L87.4965 139.647ZM135.565 28.2321C136.692 25.4494 137.888 22.4201 139.155 19.109L137.149 18.3341C135.882 21.6099 134.686 24.6392 133.56 27.4219L135.565 28.2321ZM139.19 19.109C140.492 15.6922 141.161 12.2403 141.161 8.71784H139.014C139.014 11.9585 138.416 15.1639 137.184 18.3341L139.19 19.109ZM141.161 8.71784C141.161 7.76678 141.09 6.9214 140.914 6.21692L138.838 6.74528C138.944 7.23842 139.014 7.87245 139.014 8.71784H141.161ZM140.914 6.25214C140.774 5.54766 140.598 4.98407 140.386 4.52615L138.451 5.47721C138.451 5.47721 138.662 6.0408 138.803 6.67484L140.914 6.21692V6.25214ZM140.492 5.01929V4.56138H138.345V5.01929H140.492ZM139.401 5.65333H162.415V3.50464H139.401V5.65333ZM161.359 4.56138V5.01929H163.506V4.56138H161.359ZM161.676 4.24436C160.128 5.79423 158.368 8.43605 156.327 12.1346L158.228 13.1913C160.233 9.528 161.887 7.09753 163.224 5.79423L161.711 4.27958H161.676V4.24436ZM156.327 12.1346C154.286 15.8331 152.069 20.4123 149.677 25.8016L151.647 26.6822C154.04 21.2929 156.222 16.7842 158.228 13.1561L156.327 12.0994V12.1346ZM149.641 25.8016L85.3148 168.777L87.2854 169.658L151.612 26.6822L149.641 25.8016ZM86.3001 168.143H77.3267V170.292H86.3001V168.143ZM78.2769 168.777L17.2933 31.2966L15.3227 32.1772L76.3063 169.658L78.2769 168.777ZM17.3285 31.3318C15.8858 28.0912 14.3726 24.9562 12.789 21.9269L10.8889 22.9132C12.4372 25.8721 13.9503 28.9718 15.3579 32.1772L17.3285 31.2966V31.3318ZM12.8243 21.9622C11.3111 18.9681 9.90353 16.2558 8.53114 13.8254L6.66609 14.8821C8.0033 17.2773 9.41085 19.9544 10.924 22.9132L12.8595 21.9622H12.8243ZM8.53114 13.8254C7.19393 11.3244 5.9623 9.2462 4.90662 7.59066L3.0768 8.75307C4.09729 10.3734 5.29367 12.4164 6.63087 14.8821L8.53114 13.8606V13.8254ZM4.90662 7.59066C3.85093 5.97034 3.11193 4.84317 2.68966 4.31481L1.03574 5.68855C1.35245 6.07602 2.02111 7.0623 3.0768 8.71784L4.90662 7.55544V7.59066ZM2.93601 5.01929V4.56138H0.789389V5.01929H2.93601ZM1.84514 5.65333H32.6008V3.50464H1.84514V5.65333ZM257.744 146.762L256.934 146.057L257.779 146.762H257.744ZM163.823 104.951C163.823 96.2502 165.441 88.1838 168.679 80.7515L166.708 79.9061C163.365 87.6203 161.676 95.9684 161.676 104.951H163.823ZM168.679 80.7515C171.987 73.3192 176.491 66.8732 182.157 61.4134L180.678 59.8635C174.802 65.4994 170.157 72.192 166.743 79.8709L168.714 80.7515H168.679ZM182.157 61.4134C187.822 55.8832 194.508 51.5858 202.25 48.4861L201.44 46.4783C193.452 49.6837 186.52 54.1219 180.643 59.8635L182.157 61.4134ZM202.25 48.4861C209.991 45.3863 218.261 43.8365 227.129 43.8365V41.6878C218.015 41.6878 209.464 43.2729 201.476 46.4783L202.285 48.4861H202.25ZM227.093 43.8717C235.785 43.8717 243.985 45.3511 251.621 48.3099L252.395 46.3022C244.477 43.2376 236.032 41.723 227.093 41.723V43.8717ZM251.656 48.2747C259.398 51.1631 266.083 55.2844 271.714 60.6384L273.192 59.0886C267.315 53.5231 260.383 49.2258 252.395 46.2669L251.656 48.2747ZM271.714 60.6384C277.45 65.9925 281.954 72.509 285.262 80.1879L287.233 79.3425C283.819 71.4171 279.139 64.654 273.157 59.0886L271.679 60.6737H271.714V60.6384ZM285.297 80.1879C288.605 87.8316 290.259 96.4263 290.259 105.937H292.405C292.405 96.1445 290.681 87.268 287.268 79.3073L285.297 80.1527V80.1879ZM290.259 105.937C290.259 113.827 288.851 121.436 286.071 128.833L288.077 129.608C290.963 121.999 292.405 114.109 292.405 105.972H290.259V105.937ZM286.071 128.833C283.291 136.124 279.209 142.605 273.825 148.276L275.374 149.756C280.934 143.873 285.156 137.181 288.077 129.608L286.071 128.833ZM273.825 148.241C268.477 153.807 261.861 158.315 253.978 161.697L254.823 163.669C262.952 160.182 269.814 155.533 275.374 149.721L273.825 148.241ZM253.978 161.697C246.131 165.008 237.087 166.664 226.882 166.664V168.812C237.334 168.812 246.659 167.121 254.823 163.669L253.978 161.697ZM226.882 166.699C218.261 166.699 210.097 165.255 202.461 162.401L201.687 164.409C209.604 167.368 218.015 168.847 226.882 168.847V166.699ZM202.426 162.366C194.754 159.478 188.068 155.392 182.332 150.108L180.855 151.693C186.802 157.188 193.734 161.415 201.651 164.374L202.426 162.366ZM182.368 150.108C176.632 144.754 172.127 138.273 168.82 130.664L166.849 131.545C170.262 139.4 174.978 146.093 180.925 151.693L182.403 150.108H182.368ZM168.82 130.7C165.512 123.056 163.858 114.461 163.858 104.951H161.711C161.711 114.743 163.436 123.619 166.849 131.58L168.82 130.735V130.7ZM229.697 160.852C235.539 160.852 240.923 159.689 245.885 157.364L244.97 155.427C240.325 157.611 235.257 158.703 229.697 158.703V160.852ZM245.85 157.4C250.776 155.075 255.034 151.764 258.588 147.431L256.934 146.057C253.591 150.143 249.615 153.243 244.97 155.427L245.885 157.364H245.85V157.4ZM258.588 147.431C262.213 143.099 264.957 137.885 266.893 131.756L264.852 131.122C263.022 137.005 260.383 141.971 256.969 146.022L258.623 147.396L258.588 147.431ZM266.858 131.792C268.828 125.592 269.814 118.653 269.814 111.009H267.667C267.667 118.477 266.717 125.205 264.817 131.122L266.858 131.792ZM269.849 111.009C269.849 102.309 268.899 94.2424 266.999 86.8101L264.922 87.3385C266.752 94.5947 267.702 102.485 267.702 111.009H269.849ZM266.999 86.8101C265.169 79.3425 262.353 72.8965 258.518 67.4367L256.758 68.6696C260.418 73.8476 263.128 80.0823 264.887 87.3032L266.999 86.7749V86.8101ZM258.553 67.472C254.788 61.9417 250.072 57.6092 244.372 54.5446L243.351 56.4468C248.735 59.3704 253.204 63.4212 256.793 68.7048L258.588 67.5072H258.553V67.472ZM244.372 54.5446C238.636 51.3745 231.985 49.7894 224.419 49.7894V51.938C231.668 51.938 237.967 53.4527 243.316 56.4115L244.372 54.5094V54.5446ZM224.419 49.7894C218.578 49.7894 213.194 50.9165 208.267 53.1357L209.147 55.1082C213.792 52.9948 218.859 51.938 224.419 51.938V49.7894ZM208.232 53.1357C203.305 55.39 199.012 58.6307 195.388 62.8576L197.042 64.2665C200.455 60.251 204.502 57.2217 209.147 55.1082L208.267 53.1357H208.232ZM195.388 62.8928C191.834 67.1197 189.089 72.3329 187.118 78.4267L189.159 79.096C191.059 73.2135 193.699 68.2821 197.042 64.2665L195.388 62.8928ZM187.118 78.4267C185.148 84.5557 184.162 91.4949 184.162 99.209H186.309C186.309 91.671 187.259 84.9432 189.159 79.096L187.118 78.4267ZM184.127 99.209C184.127 107.839 185.077 115.905 186.978 123.408L189.054 122.88C187.224 115.553 186.274 107.663 186.274 99.209H184.127ZM186.978 123.408C188.948 130.84 191.798 137.357 195.529 142.958L197.323 141.76C193.734 136.406 190.954 130.101 189.054 122.88L186.978 123.443V123.408ZM195.564 142.993C199.399 148.523 204.15 152.891 209.851 156.131L210.906 154.265C205.522 151.2 200.983 147.044 197.323 141.76L195.564 142.993ZM209.851 156.131C215.587 159.302 222.202 160.887 229.697 160.887V158.738C222.519 158.738 216.255 157.223 210.906 154.265L209.851 156.167V156.131ZM369.259 165.29H370.35V165.114L370.28 164.938L369.259 165.29ZM369.259 165.748V166.84H370.35V165.748H369.259ZM343.219 165.748H342.128V166.84H343.219V165.748ZM343.219 165.29L342.199 164.938L342.128 165.114V165.29H343.219ZM346.457 111.678H347.548V111.326L347.336 111.044L346.492 111.714H346.457V111.678ZM306.059 58.2784L305.179 58.9125L306.024 58.2784H306.059ZM298.282 49.6485L297.543 50.4586L298.247 49.6485H298.282ZM292.687 45.3511H291.596V46.0204L292.229 46.3022L292.687 45.3159V45.3511ZM292.687 44.9284V43.8365H291.596V44.9284H292.687ZM324.569 44.9284H325.659V43.8365H324.569V44.9284ZM331.994 61.4486L331.114 62.0826L331.958 61.4486H331.994ZM360.497 99.209L359.653 99.8431L360.532 101.005L361.377 99.8431L360.497 99.209ZM394.42 51.4449L393.435 51.0222L394.455 51.4449H394.42ZM396.109 44.9284V43.8365H395.018V44.9284H396.109ZM416.66 44.9284H417.751V43.8365H416.66V44.9284ZM416.66 45.3511L417.258 46.2317L417.716 45.9147V45.3511H416.625H416.66ZM410.818 50.1768L410.079 49.4019L410.854 50.1768H410.818ZM365.987 109.988L365.107 109.354L364.896 109.635V109.988H365.987ZM364.931 119.428C364.931 126.191 365.002 132.073 365.142 137.11L367.289 137.04C367.148 132.038 367.078 126.156 367.078 119.428H364.931ZM365.142 137.11C365.283 142.147 365.494 146.48 365.705 150.179L367.852 150.038C367.641 146.374 367.43 142.042 367.289 137.04L365.142 137.11ZM365.705 150.214C366.022 153.842 366.339 156.871 366.726 159.407L368.872 159.09C368.485 156.66 368.168 153.631 367.887 150.073L365.74 150.249L365.705 150.214ZM366.726 159.407C367.183 161.908 367.676 163.987 368.239 165.642L370.28 164.973C369.787 163.458 369.295 161.486 368.872 159.055L366.761 159.443H366.726V159.407ZM368.169 165.29V165.748H370.315V165.29H368.169ZM369.259 164.656H343.219V166.804H369.259V164.656ZM344.275 165.748V165.29H342.128V165.748H344.275ZM344.24 165.642C344.803 163.987 345.26 161.908 345.647 159.407L343.501 159.09C343.149 161.521 342.691 163.493 342.199 164.973L344.24 165.642ZM345.612 159.407C346.069 156.871 346.421 153.807 346.633 150.179L344.486 150.038C344.275 153.595 343.923 156.589 343.501 159.02L345.612 159.407ZM346.633 150.214C346.949 146.515 347.16 142.147 347.301 137.11L345.154 137.04C345.014 142.042 344.768 146.374 344.486 150.038L346.633 150.214ZM347.336 137.11C347.477 132.073 347.548 126.191 347.548 119.428H345.401C345.401 126.156 345.33 132.038 345.19 137.04L347.336 137.11ZM347.548 119.428V111.678H345.401V119.428H347.548ZM347.336 111.009L306.903 57.6092L305.179 58.9125L345.612 112.312L347.336 111.009ZM306.903 57.6444C304.194 54.0163 301.555 51.0574 299.021 48.8383L297.614 50.4586C300.006 52.5721 302.54 55.39 305.214 58.9477L306.939 57.6444H306.903ZM299.021 48.8383C296.558 46.5839 294.587 45.0693 293.144 44.4L292.229 46.3374C293.355 46.8657 295.115 48.169 297.578 50.4234L299.021 48.8383ZM293.743 45.3511V44.8932H291.596V45.3511H293.743ZM292.687 45.9851H324.569V43.8365H292.687V45.9851ZM323.478 44.9284C323.478 46.4783 324.006 48.7326 324.991 51.5858L327.032 50.8813C326.047 48.0281 325.624 46.0908 325.624 44.9284H323.478ZM325.026 51.5506C326.047 54.4742 328.123 57.9966 331.114 62.0474L332.838 60.7793C329.882 56.7638 327.947 53.4527 327.032 50.8461L324.991 51.5506H325.026ZM331.114 62.0826L359.653 99.8431L361.377 98.5398L332.838 60.7793L331.114 62.0826ZM361.377 99.8431L390.584 60.4975L388.86 59.1943L359.653 98.5398L361.377 99.8431ZM390.584 60.4975C392.731 57.5739 394.35 54.6855 395.44 51.7971L393.435 51.0222C392.414 53.6993 390.901 56.4115 388.86 59.1943L390.584 60.4623V60.4975ZM395.405 51.8324C396.531 49.0144 397.165 46.6896 397.165 44.8932H395.018C395.018 46.2669 394.525 48.2747 393.399 51.0222L395.405 51.8324ZM396.109 45.9851H416.66V43.8365H396.109V45.9851ZM415.569 44.9284V45.3863H417.716V44.9284H415.569ZM416.026 44.4705C414.091 45.7738 412.085 47.4293 410.044 49.4019L411.522 50.9518C413.493 49.0497 415.393 47.4646 417.223 46.2317L416.026 44.4353V44.4705ZM410.044 49.4371C408.038 51.4449 405.716 54.2629 403.077 57.891L404.801 59.159C407.405 55.5661 409.657 52.8539 411.557 50.9518L410.044 49.4371ZM403.077 57.8557L365.107 109.318L366.831 110.586L404.801 59.1238L403.077 57.8557ZM364.931 109.988V119.428H367.078V109.988H364.931ZM494.921 127.741L495.871 127.283L495.59 126.684H494.921V127.776V127.741ZM439.322 127.987V126.895H438.653L438.372 127.529L439.357 127.987H439.322ZM435.169 136.758L436.12 137.251L435.134 136.758H435.169ZM425.528 165.29H426.618V164.973L426.442 164.691L425.528 165.29ZM425.528 165.748V166.84H426.618V165.748H425.528ZM405.751 165.748H404.66V166.84H405.751V165.748ZM405.751 165.29L404.977 164.515L404.66 164.832V165.29H405.751ZM412.05 155.392L411.135 154.828L412.085 155.392H412.05ZM467.614 42.1105V41.0185H466.946L466.664 41.6173L467.65 42.0752H467.614V42.1105ZM476.06 42.1105L477.045 41.6526L476.764 41.0537H476.095V42.1457H476.06V42.1105ZM531.061 155.955L530.111 156.484L531.026 155.955H531.061ZM535.002 162.366L534.087 162.965L534.967 162.366H535.002ZM537.254 165.29H538.345V164.761L537.923 164.444L537.254 165.29ZM537.254 165.748V166.84H538.345V165.748H537.254ZM508.505 165.748L507.449 165.501L507.132 166.84H508.505V165.748ZM501.889 142.359L500.903 142.817L501.854 142.359H501.889ZM443.72 118.97L442.735 118.512L441.996 120.062H443.72V118.97ZM490.875 118.759V119.85H492.564L491.86 118.301L490.875 118.759ZM467.614 69.0923L468.599 68.6344L467.65 66.5561L466.664 68.5991L467.65 69.057H467.614V69.0923ZM494.921 126.684H487.285V128.833H494.921V126.684ZM487.285 126.684H477.397V128.833H487.285V126.684ZM477.397 126.684H466.277V128.833H477.397V126.684ZM466.277 126.684C462.441 126.684 458.817 126.719 455.368 126.79V128.938C458.852 128.868 462.477 128.833 466.277 128.833V126.684ZM455.403 126.79C451.955 126.79 448.788 126.825 445.937 126.895L446.008 129.044C448.858 128.974 451.99 128.938 455.403 128.938V126.79ZM445.937 126.895H439.322V129.044H445.937V126.895ZM438.372 127.529L434.219 136.3L436.155 137.216L440.307 128.445L438.372 127.529ZM434.219 136.265C432.425 139.858 430.876 143.028 429.609 145.74L431.545 146.656C432.812 143.979 434.36 140.844 436.12 137.251L434.184 136.3H434.219V136.265ZM429.609 145.705C428.343 148.347 427.287 150.672 426.442 152.75L428.448 153.56C429.258 151.552 430.313 149.263 431.58 146.656L429.645 145.705H429.609ZM426.442 152.75C425.598 154.793 425 156.625 424.613 158.174L426.689 158.703C427.041 157.259 427.639 155.568 428.448 153.56L426.442 152.75ZM424.577 158.174C424.19 159.689 423.979 161.133 423.979 162.507H426.126C426.126 161.345 426.302 160.077 426.654 158.738L424.577 158.174ZM423.979 162.472C423.979 163.317 424.014 164.022 424.12 164.55L426.231 164.198C426.161 163.846 426.126 163.282 426.126 162.472H423.979ZM424.12 164.621C424.225 165.078 424.366 165.536 424.613 165.924L426.407 164.726C426.407 164.726 426.302 164.515 426.231 164.198L424.12 164.621ZM424.437 165.29V165.748H426.583V165.29H424.437ZM425.528 164.656H405.751V166.804H425.528V164.656ZM406.842 165.748V165.29H404.695V165.748H406.842ZM406.525 166.065C407.123 165.466 408.003 164.233 409.129 162.507L407.335 161.345C406.208 163.071 405.434 164.127 405.012 164.55L406.525 166.065ZM409.129 162.507C410.255 160.675 411.557 158.492 412.965 155.955L411.065 154.899C409.657 157.435 408.39 159.583 407.264 161.38L409.094 162.507H409.129ZM412.965 155.955C414.478 153.384 416.062 150.496 417.716 147.255L415.78 146.269C414.126 149.474 412.578 152.327 411.1 154.863L412.965 155.955ZM417.716 147.255C419.44 144.014 421.129 140.668 422.783 137.216L420.847 136.3C419.193 139.717 417.539 143.063 415.815 146.269L417.716 147.29V147.255ZM422.783 137.216L468.599 42.5684L466.664 41.6173L420.847 136.265L422.783 137.216ZM467.614 43.1672H476.024V41.0185H467.614V43.1672ZM475.074 42.5684L519.976 137.216L521.912 136.3L477.01 41.6526L475.074 42.5684ZM519.976 137.216C521.701 140.809 523.425 144.296 525.149 147.607L527.049 146.621C525.325 143.345 523.601 139.893 521.912 136.3L519.976 137.216ZM525.184 147.607C526.979 150.918 528.633 153.877 530.146 156.519L532.011 155.462C530.533 152.856 528.879 149.897 527.085 146.586L525.184 147.607ZM530.146 156.519C531.659 159.09 532.961 161.239 534.087 162.965L535.882 161.803C534.756 160.112 533.454 157.963 531.976 155.427L530.111 156.519H530.146ZM534.122 162.965C534.685 163.81 535.178 164.48 535.565 164.973C535.952 165.466 536.269 165.889 536.586 166.1L537.923 164.409C537.923 164.409 537.641 164.127 537.254 163.634C536.902 163.176 536.445 162.542 535.882 161.732L534.087 162.965H534.122ZM536.164 165.29V165.748H538.31V165.29H536.164ZM537.254 164.656H508.505V166.804H537.254V164.656ZM509.56 165.994C509.736 165.325 509.807 164.726 509.807 164.163H507.66C507.66 164.515 507.589 164.938 507.484 165.466L509.56 165.994ZM509.807 164.092V164.022V163.951V163.881V163.81V163.74V163.669V163.599V163.529V163.458V163.388V163.317V163.247V163.176V163.106V163.035V162.965V162.895V162.824V162.754V162.683V162.613V162.542V162.472V162.401V162.331V162.261V162.19V162.12V162.049H507.66V162.12V162.19V162.261V162.331V162.401V162.472V162.542V162.613V162.683V162.754V162.824V162.895V162.965V163.035V163.106V163.176V163.247V163.317V163.388V163.458V163.529V163.599V163.669V163.74V163.81V163.881V163.951V164.022V164.092H509.807ZM509.807 162.472C509.807 160.675 509.384 158.562 508.645 156.167L506.604 156.836C507.343 159.09 507.66 160.957 507.66 162.472H509.807ZM508.645 156.237C507.941 153.877 507.062 151.447 506.006 149.016L504.035 149.897C505.056 152.257 505.901 154.582 506.569 156.836L508.645 156.237ZM506.006 149.051C505.021 146.55 503.965 144.155 502.839 141.866L500.903 142.817C501.994 145.036 503.05 147.361 504 149.826L506.006 149.051ZM502.839 141.901C501.783 139.647 500.939 137.78 500.27 136.3L498.299 137.181C498.968 138.695 499.848 140.562 500.903 142.817L502.874 141.901H502.839ZM500.27 136.265L495.907 127.283L493.971 128.234L498.335 137.216L500.27 136.265ZM443.72 120.062H450.582V117.913H443.72V120.062ZM450.547 120.062H460.541V117.913H450.547V120.062ZM460.576 120.062C464.166 119.991 467.755 119.956 471.344 119.956V117.807C467.755 117.807 464.13 117.807 460.541 117.913V120.062H460.576ZM471.344 119.956H481.796V117.807H471.344V119.956ZM481.796 119.956C485.174 119.886 488.165 119.85 490.875 119.85V117.702C488.165 117.702 485.139 117.702 481.76 117.807V119.956H481.796ZM491.86 118.301L468.599 68.6344L466.664 69.5502L489.924 119.216L491.86 118.301ZM466.664 68.5991L442.735 118.512L444.671 119.463L468.599 69.5502L466.664 68.5991ZM660.981 154.617L659.96 154.265V154.405L661.016 154.652H660.981V154.617ZM659.749 156.308L659.151 155.427L659.784 156.308H659.749ZM644.371 46.7248L645.357 46.3022L645.145 45.809L644.653 45.6681L644.336 46.6896H644.371V46.7248ZM652.782 66.9436L653.415 67.8242L654.119 67.3311L653.802 66.5209L652.817 66.9436H652.782ZM651.656 67.7185L650.846 68.423L651.48 69.1627L652.289 68.5991L651.656 67.7185ZM639.762 118.301H638.671V118.618L639.762 118.301ZM639.762 117.843V116.751H638.671V117.843H639.762ZM663.69 117.843H664.781V116.751H663.69V117.843ZM663.69 118.301L664.711 118.653L664.781 118.477V118.301H663.69ZM661.896 127.987L660.84 127.882L661.931 127.987H661.896ZM660.242 152.151C660.242 153.032 660.136 153.736 659.96 154.3L662.001 154.969C662.283 154.159 662.388 153.208 662.388 152.151H660.242ZM659.925 154.37C659.855 154.723 659.644 155.075 659.151 155.392L660.347 157.188C661.227 156.625 661.826 155.814 662.037 154.828L659.925 154.37ZM659.151 155.427C653.943 159.09 647.82 162.049 640.817 164.268L641.451 166.311C648.664 164.022 654.963 160.992 660.383 157.188L659.151 155.427ZM640.782 164.268C633.885 166.417 625.721 167.474 616.29 167.474V169.622C625.862 169.622 634.272 168.53 641.415 166.311L640.782 164.233V164.268ZM616.29 167.474C605.698 167.474 596.021 165.959 587.329 162.93L586.625 164.973C595.599 168.073 605.487 169.658 616.29 169.658V167.509V167.474ZM587.364 162.93C578.708 159.9 571.318 155.674 565.16 150.319L563.752 151.94C570.157 157.505 577.793 161.838 586.66 164.973L587.364 162.93ZM565.124 150.319C558.966 144.86 554.145 138.378 550.697 130.77L548.726 131.651C552.316 139.506 557.312 146.269 563.717 151.905L565.16 150.284H565.124V150.319ZM550.697 130.805C547.319 123.232 545.63 114.849 545.63 105.62H543.483C543.483 115.13 545.242 123.831 548.726 131.686L550.697 130.805ZM545.63 105.62C545.63 97.7648 547.178 90.086 550.275 82.6536L548.269 81.8082C545.066 89.4871 543.483 97.4478 543.483 105.585H545.63V105.62ZM550.239 82.6536C553.406 75.2213 557.911 68.6344 563.822 62.8928L562.309 61.3429C556.222 67.2958 551.541 74.0941 548.269 81.8082L550.239 82.6536ZM563.822 62.8928C569.699 57.1512 576.843 52.5369 585.253 49.0849L584.443 47.0771C575.787 50.6347 568.432 55.39 562.309 61.3429L563.822 62.8928ZM585.253 49.0497C593.698 45.5977 603.27 43.8365 613.932 43.8365V41.6878C603.024 41.6878 593.206 43.4842 584.443 47.0419L585.253 49.0497ZM613.932 43.8717C619.492 43.8717 624.771 44.1887 629.733 44.858L630.014 42.7093C624.947 42.04 619.598 41.6878 613.932 41.6878V43.8365V43.8717ZM629.768 44.858C634.729 45.4568 639.515 46.4078 644.09 47.7464L644.688 45.6681C639.973 44.2944 635.117 43.3081 630.014 42.7093L629.768 44.858ZM643.386 47.1123L651.796 67.3311L653.802 66.4857L645.392 46.2669L643.386 47.1123ZM652.183 66.063L651.058 66.8379L652.289 68.5991L653.415 67.8242L652.183 66.063ZM652.5 67.014C647.926 61.7304 642.366 57.5387 635.856 54.5094L634.941 56.4468C641.169 59.3704 646.483 63.3859 650.881 68.423L652.5 67.014ZM635.856 54.5094C629.31 51.3392 621.85 49.7894 613.475 49.7894V51.938C621.568 51.938 628.712 53.4527 634.905 56.4468L635.856 54.5094ZM613.51 49.7894C606.648 49.7894 600.314 50.8813 594.473 53.1357L595.247 55.1435C600.807 53.03 606.894 51.938 613.51 51.938V49.7894ZM594.473 53.1357C588.737 55.3548 583.705 58.6307 579.376 62.928L580.89 64.4427C584.972 60.3566 589.757 57.2569 595.212 55.1435L594.437 53.1357H594.473ZM579.376 62.928C575.154 67.1549 571.846 72.4034 569.488 78.6028L571.494 79.3778C573.781 73.4249 576.913 68.4582 580.89 64.4779L579.376 62.9632V62.928ZM569.488 78.5676C567.095 84.7671 565.934 91.8119 565.934 99.6317H568.08C568.08 92.0233 569.206 85.2602 571.494 79.3425L569.488 78.5676ZM565.934 99.667C565.934 108.438 567.025 116.61 569.242 124.148L571.318 123.549C569.171 116.258 568.116 108.297 568.116 99.7022H565.934V99.667ZM569.242 124.113C571.459 131.651 574.766 138.238 579.2 143.803L580.89 142.464C576.632 137.11 573.464 130.805 571.318 123.514L569.242 124.113ZM579.2 143.838C583.634 149.368 589.124 153.701 595.634 156.836L596.584 154.899C590.355 151.905 585.147 147.748 580.89 142.5L579.2 143.838ZM595.634 156.836C602.25 160.006 609.886 161.556 618.542 161.556V159.407C610.132 159.407 602.812 157.893 596.549 154.899L595.634 156.836ZM618.542 161.556C625.932 161.556 631.809 160.605 636.067 158.632L635.152 156.66C631.316 158.421 625.791 159.372 618.542 159.372V161.521V161.556ZM636.067 158.632C640.219 156.73 642.894 154.335 642.894 151.235H640.747C640.747 152.926 639.269 154.793 635.222 156.66L636.102 158.632H636.067ZM642.858 151.235V145.282H640.712V151.235H642.858ZM642.858 145.282C642.858 141.373 642.823 137.991 642.753 135.138L640.606 135.208C640.676 138.026 640.712 141.408 640.712 145.282H642.858ZM642.753 135.138C642.682 132.285 642.577 129.819 642.401 127.776L640.254 127.952C640.395 129.96 640.501 132.355 640.571 135.208L642.718 135.138H642.753ZM642.401 127.776C642.26 125.662 642.014 123.796 641.697 122.246L639.586 122.668C639.867 124.113 640.078 125.874 640.254 127.917L642.401 127.776ZM641.732 122.316C641.486 120.766 641.204 119.357 640.817 118.019L638.741 118.618C639.093 119.85 639.375 121.189 639.621 122.633L641.767 122.316H641.732ZM640.852 118.301V117.843H638.706V118.301H640.852ZM639.762 118.935H663.69V116.786H639.762V118.935ZM662.6 117.843V118.301H664.746V117.843H662.6ZM662.67 117.984C662.283 119.181 661.931 120.555 661.614 122.175L663.726 122.563C664.007 121.013 664.359 119.71 664.711 118.653L662.67 117.984ZM661.614 122.14C661.298 123.76 661.051 125.662 660.805 127.846L662.952 128.058C663.163 125.909 663.444 124.077 663.726 122.528L661.614 122.14ZM660.805 127.917C660.664 130.101 660.488 132.637 660.347 135.596L662.494 135.701C662.635 132.778 662.776 130.242 662.952 128.093L660.805 127.952V127.917ZM660.347 135.596C660.277 138.519 660.242 141.901 660.242 145.74H662.388C662.388 141.936 662.424 138.555 662.494 135.666L660.347 135.596ZM660.242 145.74V152.151H662.388V145.74H660.242ZM687.056 44.9284V43.8365H685.966V44.9284H687.056ZM748.005 44.2239V43.132H747.97V44.2239H748.005ZM757.436 43.5547L758.456 43.9069L759.089 42.1105L757.224 42.4979L757.436 43.5547ZM753.072 55.707L752.79 56.7638L753.741 57.0103L754.057 56.0945L753.037 55.7423L753.072 55.707ZM738.011 53.2413L737.87 54.2981L737.976 53.2413H738.011ZM721.859 52.8891V53.9811H721.929L721.859 52.8891ZM716.228 53.2413L716.299 54.3333L716.193 53.2413H716.228ZM709.824 53.664L709.754 52.5721L708.768 52.6425V53.664H709.859H709.824ZM709.824 98.0819H708.733V99.1738H709.824V98.0819ZM738.679 96.7433L738.609 95.6514H738.574L738.679 96.7433ZM749.377 95.4753L750.433 95.6866L750.749 94.1367L749.201 94.4185L749.377 95.4753ZM746.668 108.86L746.527 109.917L747.512 110.058L747.723 109.072L746.668 108.86ZM709.824 106.183V105.091H708.733V106.183H709.824ZM709.824 157.188H708.733V158.28H709.824V157.188ZM758.139 151.693L759.195 151.869L759.477 150.214L757.858 150.636L758.139 151.693ZM755.535 166.417L755.465 167.509L756.415 167.579L756.591 166.628L755.535 166.452V166.417ZM750.046 166.065L750.116 164.973V166.065H750.046ZM687.056 165.748H685.966V166.84H687.056V165.748ZM687.056 165.29L686.036 164.938L685.966 165.114V165.29H687.056ZM689.414 60.6384L688.323 60.7089L689.379 60.6384H689.414ZM687.056 45.3511H685.966V45.5272L686.036 45.7033L687.056 45.3511ZM687.056 45.9851H709.613V43.8365H687.056V45.9851ZM709.613 45.9851C717.319 45.9147 724.463 45.8442 731.079 45.7738V43.6251C724.463 43.6956 717.319 43.766 709.613 43.8365V45.9851ZM731.079 45.7738C737.659 45.6329 743.325 45.4568 748.04 45.3159L747.97 43.1672C743.254 43.3081 737.624 43.4842 731.008 43.6251V45.7738H731.079ZM748.04 45.3159C752.826 45.175 756.063 44.9284 757.647 44.6114L757.224 42.4979C755.817 42.7797 752.79 42.9911 747.97 43.1672L748.04 45.3159ZM756.45 43.2024L752.087 55.3548L754.128 56.0945L758.491 43.9421L756.45 43.2024ZM753.353 54.6503C751.312 54.122 748.99 53.6288 746.421 53.1709L746.034 55.2844C748.568 55.7423 750.82 56.2002 752.79 56.7285L753.318 54.6503H753.353ZM746.386 53.1709C744.099 52.7834 741.354 52.4664 738.116 52.1494L737.905 54.2981C741.108 54.5799 743.817 54.9321 746.034 55.2844L746.386 53.1709ZM738.152 52.1494C734.949 51.7619 731.254 51.5858 727.032 51.5858V53.7345C731.184 53.7345 734.809 53.9106 737.905 54.2981L738.152 52.1494ZM727.032 51.5858C725.483 51.5858 723.759 51.6562 721.788 51.7971L721.964 53.9458C723.9 53.8049 725.589 53.7345 727.032 53.7345V51.5858ZM721.824 51.7971C719.853 51.8676 717.988 51.9733 716.158 52.1494L716.334 54.2981C718.129 54.1572 719.959 54.0515 721.894 53.9811L721.824 51.8324V51.7971ZM716.158 52.1494C714.047 52.2903 711.935 52.4664 709.754 52.6073L709.894 54.756C712.076 54.6151 714.188 54.439 716.299 54.2981L716.158 52.1494ZM708.768 53.664V98.0466H710.915V53.664H708.768ZM709.859 99.1386C715.947 99.0681 721.401 98.9272 726.293 98.6807L726.187 96.532C721.331 96.7433 715.877 96.9195 709.824 96.9899V99.1386H709.859ZM726.293 98.7159C731.184 98.5046 735.337 98.1875 738.82 97.8001L738.574 95.6514C735.161 96.0389 731.043 96.3206 726.187 96.532L726.293 98.6807V98.7159ZM738.785 97.8001C742.867 97.4831 746.456 97.0956 749.553 96.5672L749.201 94.4538C746.175 94.9821 742.656 95.3696 738.644 95.6866L738.785 97.8353V97.8001ZM748.321 95.2639L745.612 108.649L747.723 109.072L750.433 95.6866L748.321 95.2639ZM746.808 107.804C742.691 107.275 738.504 106.817 734.316 106.465L734.14 108.614C738.328 109.001 742.445 109.424 746.562 109.952L746.843 107.804H746.808ZM734.316 106.43C730.691 106.043 726.715 105.761 722.351 105.514L722.246 107.663C726.574 107.874 730.515 108.191 734.105 108.543L734.316 106.395V106.43ZM722.387 105.549C718.023 105.232 713.836 105.091 709.859 105.091V107.24C713.8 107.24 717.918 107.381 722.246 107.698L722.387 105.549ZM708.768 106.183V157.223H710.915V106.183H708.768ZM709.824 158.28C716.827 158.28 723.231 158.034 729.108 157.505L728.897 155.357C723.091 155.885 716.721 156.131 709.789 156.131V158.28H709.824ZM729.143 157.47C734.985 156.871 740.122 156.237 744.486 155.568L744.169 153.419C739.841 154.088 734.773 154.723 728.967 155.321L729.178 157.47H729.143ZM744.486 155.568C749.588 154.723 754.233 153.807 758.386 152.75L757.858 150.672C753.776 151.728 749.201 152.644 744.134 153.454L744.486 155.568ZM757.048 151.517L754.48 166.241L756.591 166.628L759.16 151.905L757.048 151.517ZM755.606 165.325C754.48 165.255 752.65 165.149 750.081 164.973L749.94 167.121C752.474 167.262 754.304 167.368 755.43 167.474L755.57 165.325H755.606ZM750.081 165.008C747.618 164.938 744.978 164.867 742.198 164.797L742.128 166.945C744.908 167.016 747.512 167.086 749.975 167.157L750.046 165.008H750.081ZM742.163 164.761C739.489 164.761 736.955 164.726 734.562 164.656L734.492 166.804C736.885 166.875 739.454 166.91 742.163 166.91V164.761ZM734.527 164.656H729.6V166.804H734.527V164.656ZM729.6 164.656H687.056V166.804H729.6V164.656ZM688.112 165.748V165.29H685.966V165.748H688.112ZM688.077 165.642C688.64 163.987 689.097 161.908 689.484 159.407L687.338 159.09C686.951 161.521 686.529 163.493 686.036 164.973L688.077 165.642ZM689.449 159.407C689.907 156.871 690.259 153.807 690.47 150.179L688.323 150.038C688.112 153.595 687.76 156.589 687.338 159.02L689.449 159.407ZM690.47 150.214C690.751 146.515 690.998 142.147 691.138 137.11L688.992 137.04C688.851 142.042 688.605 146.374 688.323 150.038L690.47 150.214ZM691.138 137.11C691.279 132.073 691.349 126.191 691.349 119.428H689.203C689.203 126.156 689.133 132.038 688.992 137.04L691.138 137.11ZM691.385 119.428V91.1074H689.238V119.428H691.385ZM691.385 91.1074C691.385 84.3444 691.314 78.4972 691.174 73.5305L689.027 73.601C689.168 78.5324 689.238 84.3796 689.238 91.1074H691.385ZM691.138 73.5305C690.998 68.4935 690.751 64.1609 690.47 60.5328L688.323 60.7089C688.605 64.2666 688.851 68.5639 688.992 73.5658L691.138 73.4953V73.5305ZM690.47 60.568C690.259 56.8694 689.907 53.7697 689.449 51.2336L687.338 51.621C687.76 54.0515 688.112 57.0808 688.323 60.7089L690.47 60.568ZM689.449 51.2688C689.062 48.7679 688.605 46.6896 688.042 45.0341L686.001 45.7033C686.493 47.1828 686.951 49.1553 687.303 51.5858L689.449 51.2688ZM688.112 45.3511V44.8932H685.966V45.3511H688.112ZM964.843 165.748H963.752V166.84H964.843V165.748ZM964.843 165.29L963.857 164.902L963.787 165.078V165.29H964.878H964.843ZM947.107 112.806L948.093 112.383L947.811 111.784H947.142V112.841L947.107 112.806ZM875.813 112.806V111.714H875.109L874.828 112.348L875.813 112.77V112.806ZM858.042 165.29H859.133V164.973L858.957 164.691L858.042 165.29ZM858.042 165.748V166.84H859.133V165.748H858.042ZM835.169 165.748H834.078V166.84H835.169V165.748ZM835.169 165.29L834.395 164.55L834.114 164.867V165.29H835.204H835.169ZM911.179 1.17984V0.0878906H910.475L910.193 0.721929L911.179 1.17984ZM920.152 1.17984L921.137 0.757154L920.856 0.123116H920.152V1.21507V1.17984ZM985.499 147.995L984.514 148.453L985.464 147.995H985.499ZM995.598 165.29H996.689V164.902L996.443 164.585L995.598 165.29ZM995.598 165.748V166.84H996.689V165.748H995.598ZM942.497 102.45V103.542H944.151L943.483 102.027L942.497 102.45ZM910.932 31.0853L911.918 30.6626L910.932 28.4082L909.947 30.6626L910.932 31.0853ZM879.966 102.908L878.98 102.485L878.347 104H880.001V102.908H879.966ZM965.934 165.748V165.29H963.787V165.748H965.934ZM965.863 165.677C966.074 165.149 966.18 164.48 966.286 163.705L964.139 163.493C964.069 164.198 963.963 164.656 963.857 164.902L965.863 165.712V165.677ZM966.25 163.705C966.321 162.93 966.356 162.225 966.356 161.591H964.209C964.209 162.155 964.174 162.789 964.104 163.493L966.25 163.705ZM966.391 161.591C966.391 159.161 966.039 156.519 965.336 153.701L963.224 154.194C963.893 156.906 964.209 159.372 964.209 161.591H966.391ZM965.336 153.701C964.702 150.742 963.506 147.149 961.676 142.922L959.705 143.768C961.5 147.924 962.661 151.376 963.224 154.124L965.336 153.666V153.701ZM961.676 142.922L948.093 112.348L946.122 113.228L959.705 143.803L961.676 142.922ZM947.142 111.714C942.92 111.573 937.325 111.502 930.357 111.502V113.651C937.325 113.651 942.885 113.721 947.037 113.862L947.107 111.714H947.142ZM930.357 111.502H907.8V113.651H930.357V111.502ZM907.8 111.502H890.628V113.651H907.8V111.502ZM890.628 111.502C885.138 111.502 880.212 111.573 875.778 111.714L875.848 113.862C880.247 113.721 885.174 113.651 890.628 113.651V111.502ZM874.828 112.383L861.913 142.042L863.884 142.887L876.798 113.228L874.828 112.383ZM861.878 142.077C860.752 144.86 859.556 147.889 858.289 151.2L860.295 151.975C861.561 148.699 862.758 145.67 863.884 142.887L861.878 142.077ZM858.289 151.2C856.987 154.617 856.318 158.069 856.318 161.591H858.465C858.465 158.351 859.063 155.145 860.295 151.975L858.289 151.2ZM856.318 161.591C856.318 162.613 856.389 163.529 856.564 164.304L858.676 163.846C858.535 163.282 858.465 162.542 858.465 161.591H856.318ZM856.564 164.304C856.705 164.902 856.881 165.466 857.163 165.889L858.957 164.691C858.957 164.691 858.922 164.55 858.887 164.48C858.817 164.304 858.781 164.092 858.711 163.81L856.635 164.339H856.564V164.304ZM856.987 165.29V165.748H859.133V165.29H856.987ZM858.042 164.656H835.134V166.804H858.042V164.656ZM836.225 165.748V165.29H834.078V165.748H836.225ZM835.943 166.03C837.386 164.515 839.11 161.908 841.151 158.28L839.286 157.223C837.281 160.816 835.627 163.212 834.395 164.55L835.979 166.03H835.943ZM841.151 158.28C843.192 154.582 845.409 149.967 847.838 144.472L845.867 143.592C843.474 149.051 841.292 153.595 839.286 157.223L841.187 158.28H841.151ZM847.802 144.507L912.164 1.63776L910.193 0.757154L845.867 143.627L847.838 144.507H847.802ZM911.179 2.2718H920.152V0.123116H911.179V2.2718ZM919.167 1.63776L980.15 138.977L982.121 138.097L921.137 0.757154L919.167 1.63776ZM980.15 138.977C981.593 142.218 983.036 145.388 984.549 148.453L986.484 147.502C985.006 144.437 983.528 141.302 982.121 138.097L980.15 138.977ZM984.549 148.488C986.132 151.482 987.575 154.194 988.948 156.625L990.813 155.568C989.476 153.173 988.033 150.496 986.449 147.502L984.549 148.488ZM988.948 156.589C990.285 158.985 991.517 161.028 992.572 162.718L994.402 161.556C993.381 159.936 992.185 157.928 990.848 155.533L988.983 156.589H988.948ZM992.572 162.718C993.628 164.339 994.367 165.466 994.789 165.994L996.443 164.621C996.126 164.233 995.458 163.247 994.402 161.591L992.572 162.754V162.718ZM994.543 165.29V165.748H996.689V165.29H994.543ZM995.598 164.656H964.843V166.804H995.598V164.656ZM892.071 104H905.443V101.851H892.071V104ZM905.478 104C910.053 103.929 914.487 103.894 918.815 103.894V101.745C914.451 101.745 910.017 101.745 905.443 101.851V104H905.478ZM918.815 103.894C923.214 103.823 927.436 103.788 931.483 103.788V101.64C927.436 101.64 923.213 101.64 918.78 101.745V103.894H918.815ZM931.518 103.753C935.565 103.683 939.225 103.612 942.533 103.542V101.393C939.19 101.463 935.53 101.534 931.483 101.604V103.753H931.518ZM943.483 102.027L911.918 30.6626L909.947 31.5432L941.512 102.908L943.483 102.027ZM909.947 30.6626L878.945 102.485L880.916 103.33L911.918 31.508L909.947 30.6626ZM879.966 104H892.106V101.851H879.966V104ZM1010.55 165.29L1009.5 165.008V165.29H1010.55ZM1010.55 5.01929H1009.46V5.30108L1010.55 5.01929ZM1010.55 4.56138V3.46943H1009.46V4.56138H1010.55ZM1037.37 4.56138H1038.46V3.46943H1037.37V4.56138ZM1037.37 5.01929L1038.42 5.30108V5.01929H1037.37ZM1037.37 165.29H1038.46V165.008L1037.37 165.29ZM1037.37 165.748V166.84H1038.46V165.748H1037.37ZM1010.55 165.748H1009.46V166.84H1010.55V165.748ZM1011.57 165.572C1012.03 163.951 1012.45 161.944 1012.84 159.619L1010.73 159.266C1010.34 161.556 1009.96 163.458 1009.53 164.973L1011.61 165.572H1011.57ZM1012.84 159.619C1013.23 157.259 1013.58 154.335 1013.86 150.883L1011.72 150.707C1011.43 154.124 1011.08 157.012 1010.73 159.266L1012.84 159.619ZM1013.86 150.883C1014.18 147.396 1014.39 143.31 1014.53 138.59L1012.38 138.519C1012.24 143.239 1012 147.29 1011.72 150.707L1013.86 150.883ZM1014.53 138.59C1014.67 133.764 1014.74 128.199 1014.74 121.823H1012.6C1012.6 128.199 1012.52 133.764 1012.38 138.555L1014.53 138.625V138.59ZM1014.78 121.788V48.627H1012.63V121.788H1014.78ZM1014.78 48.627C1014.78 42.2514 1014.71 36.6859 1014.57 31.9659L1012.42 32.0363C1012.56 36.7564 1012.63 42.2866 1012.63 48.627H1014.78ZM1014.53 31.9659C1014.39 27.1401 1014.14 23.0189 1013.86 19.5317L1011.72 19.7078C1012 23.1246 1012.24 27.2458 1012.38 32.0011L1014.53 31.9306V31.9659ZM1013.86 19.5317C1013.58 16.0093 1013.23 13.0504 1012.84 10.6904L1010.73 11.0426C1011.12 13.3322 1011.43 16.2206 1011.72 19.743L1013.86 19.5669V19.5317ZM1012.84 10.6904C1012.45 8.33038 1012.03 6.35781 1011.57 4.7375L1009.5 5.33631C1009.92 6.85095 1010.34 8.75306 1010.69 11.0426L1012.81 10.6904H1012.84ZM1011.64 5.01929V4.56138H1009.5V5.01929H1011.64ZM1010.55 5.65333H1037.4V3.50464H1010.55V5.65333ZM1036.31 4.56138V5.01929H1038.46V4.56138H1036.31ZM1036.35 4.70227C1035.89 6.32259 1035.43 8.29516 1034.98 10.6552L1037.09 11.0779C1037.54 8.78829 1037.97 6.85095 1038.42 5.33631L1036.35 4.7375V4.70227ZM1034.98 10.6904C1034.59 13.0504 1034.27 16.0093 1033.96 19.5317L1036.1 19.7078C1036.38 16.1854 1036.74 13.297 1037.09 11.0074L1034.98 10.6552V10.6904ZM1033.96 19.5669C1033.74 23.0189 1033.5 27.1401 1033.29 31.9659L1035.43 32.0715C1035.64 27.281 1035.89 23.1598 1036.1 19.743L1033.96 19.6021V19.5669ZM1033.29 31.9659C1033.15 36.6859 1033.08 42.2514 1033.08 48.627H1035.22C1035.22 42.2514 1035.29 36.7212 1035.43 32.0363L1033.29 31.9659ZM1033.04 48.627V121.788H1035.19V48.627H1033.04ZM1033.04 121.788C1033.04 128.163 1033.11 133.764 1033.25 138.555L1035.4 138.484C1035.26 133.694 1035.19 128.128 1035.19 121.753H1033.04V121.788ZM1033.29 138.59C1033.5 143.31 1033.74 147.396 1033.96 150.848L1036.1 150.707C1035.89 147.255 1035.64 143.204 1035.43 138.484L1033.29 138.59ZM1033.96 150.883C1034.27 154.335 1034.59 157.259 1034.98 159.619L1037.09 159.266C1036.74 156.977 1036.38 154.124 1036.1 150.707L1033.96 150.883ZM1034.98 159.654C1035.43 161.979 1035.89 163.987 1036.35 165.607L1038.42 165.008C1038 163.458 1037.54 161.556 1037.09 159.266L1034.98 159.689V159.654ZM1036.31 165.29V165.748H1038.46V165.29H1036.31ZM1037.37 164.656H1010.52V166.804H1037.37V164.656ZM1011.64 165.748V165.29H1009.5V165.748H1011.64Z" fill="white"/></svg>